<svg xmlns="http://www.w3.org/2000/svg" width="512" height="512" viewBox="0 0 512 512">
  <defs>
    <linearGradient id="night" x1="0" y1="0" x2="1" y2="1">
      <stop offset="0" stop-color="#07111f"/>
      <stop offset="0.55" stop-color="#102d45"/>
      <stop offset="1" stop-color="#071019"/>
    </linearGradient>
    <radialGradient id="moon" cx="38%" cy="32%" r="72%">
      <stop offset="0" stop-color="#fff4bd"/>
      <stop offset="0.58" stop-color="#ffd06e"/>
      <stop offset="1" stop-color="#d87b32"/>
    </radialGradient>
    <linearGradient id="steel" x1="0" y1="0" x2="1" y2="1">
      <stop offset="0" stop-color="#effcff"/>
      <stop offset="0.5" stop-color="#76d9ed"/>
      <stop offset="1" stop-color="#2787ad"/>
    </linearGradient>
    <filter id="glow" x="-40%" y="-40%" width="180%" height="180%">
      <feGaussianBlur stdDeviation="10" result="blur"/>
      <feMerge><feMergeNode in="blur"/><feMergeNode in="SourceGraphic"/></feMerge>
    </filter>
  </defs>
  <rect x="12" y="12" width="488" height="488" rx="104" fill="url(#night)" stroke="#5fc6da" stroke-width="12"/>
  <path d="M92 380L92 318L132 318L132 270L174 270L174 334L216 334L216 252L256 252L256 334L298 334L298 286L340 286L340 334L380 334L380 244L420 244L420 380Z" fill="#0a1724" stroke="#23465b" stroke-width="8"/>
  <circle cx="248" cy="198" r="126" fill="#ffc768" opacity="0.16" filter="url(#glow)"/>
  <circle cx="224" cy="184" r="112" fill="url(#moon)"/>
  <circle cx="278" cy="144" r="112" fill="#0d2639"/>
  <path d="M150 368L343 142L372 112L354 153L186 395Z" fill="url(#steel)" stroke="#d8f8ff" stroke-width="7" stroke-linejoin="round" filter="url(#glow)"/>
  <path d="M152 344L213 397" stroke="#f5c66f" stroke-width="19" stroke-linecap="round"/>
  <path d="M158 382L130 414" stroke="#9d6034" stroke-width="25" stroke-linecap="round"/>
  <circle cx="390" cy="94" r="7" fill="#b8f7ff"/>
  <circle cx="426" cy="150" r="5" fill="#ffd780"/>
  <circle cx="105" cy="164" r="5" fill="#b8f7ff"/>
</svg>
